<svg width="64" height="64" viewBox="0 0 64 64" fill="none" xmlns="http://www.w3.org/2000/svg">
<g clip-path="url(#clip0_3146_5935)">
<path d="M34.8002 9.33333C34.8002 19.6 30.4002 26.9333 24.9335 26.9333C19.4669 26.9333 15.2002 19.7333 15.2002 9.33333C15.2002 0.666667 19.6002 0 25.0669 0C30.5335 0 34.8002 0.8 34.8002 9.33333Z" fill="#415A6B"/>
<path d="M18.5335 20.8L18.4002 26.2667C18.4002 26.2667 17.2002 32 19.0669 35.6C25.6002 34.2667 32.8002 33.4667 30.6669 26.2667V20.8H18.5335Z" fill="#F7B64C"/>
<path d="M31.3335 54.3999L37.3335 34.1333H22.2669L15.2002 32.2666L15.6002 54.3999H31.3335Z" fill="#CED6E0"/>
<path d="M28.3998 54.3999L26.3998 39.4666H22.7998L20.7998 54.3999H28.3998Z" fill="#F3705A"/>
<path d="M26.3997 39.4666L28.1331 37.7333L24.6664 34.1333L21.0664 37.7333L22.7997 39.4666H26.3997Z" fill="#F05540"/>
<path d="M18.5333 26.2666C18.5333 26.2666 18 27.9999 18.5333 29.0666C19.0667 30.1333 24.6667 34.1333 24.6667 34.1333L19.4667 39.4666L16 32.5333L17.0667 28.6666C17.2 28.1333 17.4667 27.4666 17.8667 27.0666C18 26.7999 18.2667 26.5333 18.5333 26.2666Z" fill="#F3F3F3"/>
<path d="M18.9333 54.3999L15.6 38.6666L15.3333 31.3333L5.06667 35.9999C2.66667 37.0666 0.933333 39.4666 0.8 42.1333L0 54.3999H18.9333Z" fill="#344A5E"/>
<path d="M15.7336 54.4001H20.5336C19.6003 48.8001 18.4003 42.1334 17.8669 39.8668C16.8003 35.6001 17.2003 28.5334 17.2003 28.5334C16.6669 28.8001 15.8669 30.4001 15.8669 30.4001C14.9336 31.6001 14.1336 32.8001 13.6003 34.1334C12.8003 36.0001 11.7336 38.5334 11.7336 38.5334L14.5336 38.4001L10.9336 41.6001L15.7336 54.4001Z" fill="#415A6B"/>
<path d="M30.6665 26.2666C30.6665 26.2666 31.1999 27.9999 30.6665 29.0666C30.1332 30.1333 24.5332 34.1333 24.5332 34.1333L29.7332 39.4666L33.0665 32.6666L31.9999 28.7999C31.8665 28.2666 31.5999 27.5999 31.1999 27.1999C31.1999 26.7999 30.9332 26.5333 30.6665 26.2666Z" fill="#F3F3F3"/>
<path d="M49.1999 54.3999L48.3999 42.1332C48.2666 39.4666 46.5333 37.0666 44.1333 35.9999L33.9999 31.4666L33.5999 38.6666L30.2666 54.3999H49.1999Z" fill="#344A5E"/>
<path d="M28.667 54.4001H33.467L38.4003 41.6001L34.8003 38.4001L37.6003 38.5334C37.6003 38.5334 36.5337 36.1334 35.7337 34.1334C35.2003 32.8001 34.4003 31.4668 33.467 30.4001C33.467 30.4001 32.667 28.8001 32.1337 28.5334C32.1337 28.5334 32.5337 35.7334 31.467 39.8668C30.8003 42.1334 29.6003 48.8001 28.667 54.4001Z" fill="#415A6B"/>
<path d="M33.7338 15.4667C33.0671 13.2 33.4671 11.0667 31.7338 9.06667L31.6005 8.93334C30.5338 7.60001 28.5338 7.60001 27.2005 8.80001C25.7338 10.1333 23.6005 10.9333 21.0671 10.9333C19.7338 10.9333 18.4005 10.6667 17.3338 10.2667C16.9338 11.3333 16.4005 14.5333 16.4005 14.8C16.1338 15.8667 16.1338 16.9333 16.1338 18C16.1338 24.5333 20.0005 29.8667 24.6671 29.8667C29.3338 29.8667 33.2005 24.5333 33.2005 18V17.4667C33.7338 17.2 33.8671 16.4 33.7338 15.4667Z" fill="#FFD15C"/>
<path d="M15.8288 14.9499C15.0264 15.0606 14.5798 16.6287 14.8312 18.4524C15.0827 20.276 15.937 21.6647 16.7395 21.5541C17.5419 21.4435 17.9885 19.8754 17.7371 18.0517C17.4856 16.228 16.6312 14.8393 15.8288 14.9499Z" fill="#FFD15C"/>
<path d="M33.4095 21.5738C34.2119 21.6845 35.0662 20.2958 35.3177 18.4721C35.5692 16.6484 35.1225 15.0803 34.3201 14.9696C33.5177 14.859 32.6633 16.2477 32.4119 18.0714C32.1604 19.8951 32.607 21.4632 33.4095 21.5738Z" fill="#FFD15C"/>
<path d="M63.9995 29.0666V61.1999C63.9995 62.6666 62.7995 63.9999 61.1995 63.9999H38.6662C37.1995 63.9999 35.8662 62.7999 35.8662 61.1999V29.0666C35.8662 27.5999 37.0662 26.2666 38.6662 26.2666H61.1995C62.7995 26.2666 63.9995 27.5999 63.9995 29.0666Z" fill="#F3F3F3"/>
<path d="M49.4666 31.3333L47.9999 31.6C47.8666 30.9333 47.5999 30.5333 46.9333 30.5333C46.5333 30.5333 46.2666 30.6667 45.9999 30.9333C45.7333 31.2 45.5999 31.7333 45.5999 32.5333C45.5999 33.3333 45.7333 33.8667 45.9999 34.2667C46.2666 34.6667 46.5333 34.8 46.9333 34.8C47.1999 34.8 47.4666 34.6667 47.5999 34.5333C47.7333 34.4 47.8666 34 47.9999 33.4667L49.4666 33.7333C49.1999 35.3333 48.2666 36.2667 46.9333 36.2667C45.9999 36.2667 45.3333 35.8667 44.9333 35.2C44.5333 34.5333 44.2666 33.7333 44.2666 32.6667C44.2666 31.4667 44.5333 30.6667 45.0666 30C45.5999 29.3333 46.2666 29.0667 47.0666 29.0667C47.7333 29.0667 48.2666 29.2 48.6666 29.6C48.9333 30 49.1999 30.5333 49.4666 31.3333ZM52.1333 36.1333L49.8666 29.3333H51.4666L52.5333 32.8L52.7999 34L53.0666 32.8L54.1333 29.3333H55.5999L53.3333 36.1333H52.1333Z" fill="#66C6B9"/>
<path d="M38.667 54.1333H61.2003V56.2667H38.667V54.1333ZM38.667 59.0667H49.867V61.2H38.667V59.0667ZM38.667 49.0667H61.2003V51.2H38.667V49.0667ZM38.667 44.1333H61.2003V46.2667H38.667V44.1333ZM38.667 39.0667H61.2003V41.2H38.667V39.0667Z" fill="#CED6E0"/>
</g>
<defs>
<clipPath id="clip0_3146_5935">
<rect width="64" height="64" fill="white"/>
</clipPath>
</defs>
</svg>
