<svg width="80" height="80" viewBox="0 0 80 80" fill="none" xmlns="http://www.w3.org/2000/svg">
<path d="M0 8C0 3.58172 3.58172 0 8 0H80V80H8C3.58172 80 0 76.4183 0 72V8Z" fill="white"/>
<path d="M50.3138 35.3494C50.3138 35.3494 53.3674 25.7066 52.4031 20.5637C51.4388 15.4208 48.1442 14.3766 45.9746 14.8584C44.9295 15.0906 43.887 17.0196 43.0846 18.9566H37.329C36.5264 17.0196 35.4839 15.0906 34.439 14.8584C32.269 14.3762 28.9748 15.4209 28.0105 20.5637C27.0462 25.7065 30.0998 35.3494 30.0998 35.3494L34.8958 40.5994H45.5178L50.3138 35.3494Z" fill="#4C2D22"/>
<path d="M54.147 32.2065C54.1452 31.1571 53.7312 30.1504 52.9943 29.4034C52.2573 28.6563 51.2563 28.2287 50.207 28.2126V28.2065H48.207V36.2065H50.207V36.2004C51.2563 36.1844 52.2573 35.7568 52.9943 35.0097C53.7312 34.2626 54.1452 33.2559 54.147 32.2065ZM30.207 28.2065C29.1462 28.2065 28.1288 28.628 27.3786 29.3781C26.6285 30.1283 26.207 31.1457 26.207 32.2065C26.207 33.2674 26.6285 34.2848 27.3786 35.035C28.1288 35.7851 29.1462 36.2065 30.207 36.2065H32.207V28.2065H30.207Z" fill="#EA7760"/>
<path d="M44.2066 40.45V46.528L55.8298 49.2003C57.1665 49.5077 58.4017 50.1535 59.4169 51.0758C60.4321 51.9981 61.1931 53.166 61.6268 54.4672L65.3291 65.5742C65.4293 65.8748 65.4567 66.195 65.4089 66.5082C65.3611 66.8215 65.2395 67.119 65.0542 67.3761C64.8689 67.6332 64.6252 67.8425 64.3431 67.9869C64.061 68.1314 63.7486 68.2067 63.4317 68.2066H16.9815C16.6646 68.2067 16.3522 68.1314 16.0701 67.9869C15.788 67.8425 15.5443 67.6332 15.359 67.3761C15.1737 67.119 15.0521 66.8215 15.0043 66.5082C14.9565 66.195 14.9839 65.8748 15.0841 65.5742L18.7866 54.4672C19.2203 53.166 19.9813 51.9981 20.9965 51.0758C22.0116 50.1535 23.2469 49.5077 24.5836 49.2003L36.2066 46.528V40.45H44.2066Z" fill="#FFAB91"/>
<path d="M44.207 45.3937V40.45H36.207V45.3937C37.4724 45.9302 38.8327 46.2066 40.207 46.2066C41.5814 46.2066 42.9417 45.9302 44.207 45.3937Z" fill="#EA7760"/>
<path d="M29.207 28.2065C29.207 22.1314 30.207 17.2065 40.207 17.2065C50.207 17.2065 51.207 22.1314 51.207 28.2065L47.997 38.4796C47.4783 40.1397 46.4427 41.5907 45.0414 42.6209C43.6401 43.6511 41.9463 44.2066 40.207 44.2065C38.4678 44.2066 36.774 43.6511 35.3727 42.6209C33.9713 41.5907 32.9358 40.1397 32.417 38.4796L29.207 28.2065Z" fill="#FFAB91"/>
<path d="M55.2511 13.0905C55.2511 13.0905 54.769 14.1351 52.3583 13.8137C49.9476 13.4923 43.9583 10.7029 38.9383 11.8048C35.0771 12.6524 33.6327 14.9001 33.0925 16.6197C32.4474 16.6081 31.8174 16.8149 31.3047 17.2066C30.4453 18.1778 29.7378 19.2736 29.2065 20.4566L29.0547 31.0101L30.019 29.2066L30.7281 23.1398C31.748 22.6931 32.6784 22.0652 33.4744 21.2866C33.999 20.768 34.511 20.272 34.9832 19.8189C37.8711 21.1282 40.9372 22.002 44.0815 22.4116C45.3861 22.5391 46.7027 22.4519 47.9791 22.1536C48.5122 22.54 49.0839 22.8704 49.6849 23.1395L50.394 29.2066L51.3583 31.0101L51.2065 21.0459C52.4613 20.2213 53.4481 19.0483 54.0458 17.6709C54.8038 16.2608 55.2168 14.6911 55.2511 13.0905Z" fill="#4C2D22"/>
<path d="M65.3291 65.5743L61.6266 54.4672C61.1928 53.166 60.4319 51.9982 59.4167 51.0758C58.4015 50.1535 57.1663 49.5077 55.8296 49.2004L46.6809 47.0967L40.2066 52.0967L33.7323 47.0967L24.5834 49.2001C23.2467 49.5074 22.0114 50.1532 20.9962 51.0755C19.9811 51.9979 19.2201 53.1657 18.7864 54.4669L15.0841 65.5743C14.9839 65.8749 14.9565 66.1951 15.0043 66.5083C15.0521 66.8216 15.1737 67.119 15.359 67.3761C15.5442 67.6332 15.788 67.8425 16.07 67.9869C16.3521 68.1314 16.6645 68.2067 16.9814 68.2067H63.4314C63.7483 68.2067 64.0607 68.1315 64.3428 67.9871C64.6249 67.8427 64.8687 67.6333 65.0541 67.3763C65.2394 67.1192 65.361 66.8217 65.4088 66.5084C65.4566 66.1951 65.4293 65.8749 65.3291 65.5743Z" fill="#79BBFF"/>
<path d="M41.9564 50.0146L40.2064 50.9926L38.4564 50.0146L36.5684 52.0237L38.6704 54.1796H40.2064H41.7424L43.8444 52.0237L41.9564 50.0146Z" fill="#BF0D27"/>
<path d="M40.207 68.2066H44.039L41.689 54.1796L40.207 54.1526L38.725 54.1796L36.375 68.2066H40.207Z" fill="#E8002D"/>
<path d="M36.4265 54.2476L39.2065 49.9536L36.2065 46.5276L32.8535 47.2986L36.4265 54.2476Z" fill="#5592C9"/>
<path d="M47.56 47.2986L44.207 46.5276L41.207 49.9536L43.987 54.2476L47.56 47.2986Z" fill="#5592C9"/>
</svg>
