<svg width="64" height="64" viewBox="0 0 64 64" fill="none" xmlns="http://www.w3.org/2000/svg">
<path d="M51 63H9C7.93913 63 6.92172 62.5786 6.17157 61.8284C5.42143 61.0783 5 60.0609 5 59V5C5 3.93913 5.42143 2.92172 6.17157 2.17157C6.92172 1.42143 7.93913 1 9 1H37L51 15V39" fill="#DFE1F0"/>
<path d="M51 15H41C39.9391 15 38.9217 14.5786 38.1716 13.8284C37.4214 13.0783 37 12.0609 37 11V1L51 15Z" fill="#AFAEB3"/>
<path d="M49 63C55.6274 63 61 57.6274 61 51C61 44.3726 55.6274 39 49 39C42.3726 39 37 44.3726 37 51C37 57.6274 42.3726 63 49 63Z" fill="#406FB5"/>
<path d="M35 40H11C10.7348 40 10.4804 39.8946 10.2929 39.7071C10.1054 39.5196 10 39.2652 10 39C10 38.7348 10.1054 38.4804 10.2929 38.2929C10.4804 38.1054 10.7348 38 11 38H35C35.2652 38 35.5196 38.1054 35.7071 38.2929C35.8946 38.4804 36 38.7348 36 39C36 39.2652 35.8946 39.5196 35.7071 39.7071C35.5196 39.8946 35.2652 40 35 40ZM43 34H11C10.7348 34 10.4804 33.8946 10.2929 33.7071C10.1054 33.5196 10 33.2652 10 33C10 32.7348 10.1054 32.4804 10.2929 32.2929C10.4804 32.1054 10.7348 32 11 32H43C43.2652 32 43.5196 32.1054 43.7071 32.2929C43.8946 32.4804 44 32.7348 44 33C44 33.2652 43.8946 33.5196 43.7071 33.7071C43.5196 33.8946 43.2652 34 43 34ZM31 46H11C10.7348 46 10.4804 45.8946 10.2929 45.7071C10.1054 45.5196 10 45.2652 10 45C10 44.7348 10.1054 44.4804 10.2929 44.2929C10.4804 44.1054 10.7348 44 11 44H31C31.2652 44 31.5196 44.1054 31.7071 44.2929C31.8946 44.4804 32 44.7348 32 45C32 45.2652 31.8946 45.5196 31.7071 45.7071C31.5196 45.8946 31.2652 46 31 46ZM29 52H11C10.7348 52 10.4804 51.8946 10.2929 51.7071C10.1054 51.5196 10 51.2652 10 51C10 50.7348 10.1054 50.4804 10.2929 50.2929C10.4804 50.1054 10.7348 50 11 50H29C29.2652 50 29.5196 50.1054 29.7071 50.2929C29.8946 50.4804 30 50.7348 30 51C30 51.2652 29.8946 51.5196 29.7071 51.7071C29.5196 51.8946 29.2652 52 29 52ZM31 58H11C10.7348 58 10.4804 57.8946 10.2929 57.7071C10.1054 57.5196 10 57.2652 10 57C10 56.7348 10.1054 56.4804 10.2929 56.2929C10.4804 56.1054 10.7348 56 11 56H31C31.2652 56 31.5196 56.1054 31.7071 56.2929C31.8946 56.4804 32 56.7348 32 57C32 57.2652 31.8946 57.5196 31.7071 57.7071C31.5196 57.8946 31.2652 58 31 58Z" fill="white"/>
<path d="M47.5862 54.828C47.4548 54.8282 47.3247 54.8026 47.2032 54.7525C47.0817 54.7024 46.9713 54.6288 46.8782 54.536L44.0502 51.708C43.8681 51.5194 43.7673 51.2668 43.7696 51.0046C43.7718 50.7424 43.877 50.4916 44.0624 50.3062C44.2478 50.1208 44.4986 50.0156 44.7608 50.0133C45.023 50.0111 45.2756 50.1119 45.4642 50.294L47.5862 52.416L52.5362 47.466C52.7248 47.2839 52.9775 47.1831 53.2396 47.1853C53.5018 47.1876 53.7527 47.2928 53.9381 47.4782C54.1235 47.6636 54.2286 47.9144 54.2309 48.1766C54.2332 48.4388 54.1324 48.6914 53.9502 48.88L48.2942 54.536C48.2012 54.6288 48.0908 54.7024 47.9693 54.7525C47.8478 54.8026 47.7177 54.8282 47.5862 54.828Z" fill="#3EB57B"/>
<path d="M22 19.0979V28.3359C21.9984 28.5196 21.9462 28.6993 21.8492 28.8553C21.7521 29.0113 21.614 29.1375 21.4499 29.2201C21.2859 29.3028 21.1022 29.3387 20.9191 29.3238C20.736 29.3089 20.5606 29.2439 20.412 29.1359L18.588 27.8099C18.4171 27.6857 18.2113 27.6188 18 27.6188C17.7887 27.6188 17.5829 27.6857 17.412 27.8099L15.588 29.1359C15.4394 29.2439 15.264 29.3089 15.0809 29.3238C14.8978 29.3387 14.7141 29.3028 14.55 29.2201C14.386 29.1375 14.2479 29.0113 14.1508 28.8553C14.0538 28.6993 14.0016 28.5196 14 28.3359V19.0979H22Z" fill="#E23342"/>
<path d="M19 22.3379C19 21.7856 18.5523 21.3379 18 21.3379C17.4477 21.3379 17 21.7856 17 22.3379V24.3379C17 24.8902 17.4477 25.3379 18 25.3379C18.5523 25.3379 19 24.8902 19 24.3379V22.3379Z" fill="#B72735"/>
<path d="M27 14C27 14.76 25.898 15.366 25.712 16.066C25.526 16.766 26.164 17.866 25.796 18.5C25.428 19.134 24.168 19.12 23.644 19.642C23.12 20.164 23.146 21.42 22.502 21.794C21.858 22.168 20.794 21.516 20.068 21.71C19.342 21.904 18.76 23 18 23C17.24 23 16.634 21.898 15.934 21.712C15.234 21.526 14.134 22.164 13.5 21.796C12.866 21.428 12.88 20.168 12.358 19.644C11.836 19.12 10.578 19.146 10.2 18.5C9.822 17.854 10.478 16.792 10.284 16.066C10.09 15.34 9 14.76 9 14C9 13.24 10.102 12.634 10.288 11.934C10.474 11.234 9.836 10.134 10.204 9.5C10.572 8.866 11.832 8.88 12.356 8.358C12.88 7.836 12.854 6.58 13.498 6.206C14.142 5.832 15.206 6.484 15.932 6.29C16.658 6.096 17.24 5 18 5C18.76 5 19.366 6.102 20.066 6.288C20.766 6.474 21.866 5.836 22.5 6.204C23.134 6.572 23.12 7.832 23.642 8.356C24.164 8.88 25.42 8.854 25.794 9.498C26.168 10.142 25.516 11.206 25.71 11.932C25.904 12.658 27 13.24 27 14Z" fill="#FDD331"/>
<path d="M18 19C20.7614 19 23 16.7614 23 14C23 11.2386 20.7614 9 18 9C15.2386 9 13 11.2386 13 14C13 16.7614 15.2386 19 18 19Z" fill="#F59831"/>
</svg>
